<svg width="108" height="120" viewBox="0 0 108 120" fill="none" xmlns="http://www.w3.org/2000/svg">
<path d="M53.6153 119.223C83.2262 119.223 107.231 92.5342 107.231 59.6116C107.231 26.689 83.2262 -1.35866e-07 53.6153 -8.75267e-08C24.0044 -3.9187e-08 0 26.689 1.16426e-10 59.6116C1.80727e-10 92.5342 24.0044 119.223 53.6153 119.223Z" fill="#FFA300"/>
<path d="M50.673 8.25781C44.4827 8.25781 43.1521 9.2899 43.1521 9.2899L43.1288 76.0513L28.811 22.5022L20.0566 22.2285C20.0566 22.2285 5.65695 38.4666 6.39332 58.901C6.39332 58.901 4.92101 82.7108 22.5933 99.3138L28.1568 93.5666C28.1568 93.5666 13.7572 77.0548 13.9208 58.1712C13.9208 58.1712 13.6754 46.5856 22.757 32.6282L42.8019 109.805C42.8019 109.805 47.9564 111.447 50.6563 110.899L50.673 8.25781Z" fill="#4D3100"/>
<path d="M98.9285 45.4165L90.5838 45.2331C90.5838 45.2331 86.9841 24.6906 64.2406 18.0877L64.2406 44.8663L100.238 69.0771C100.238 69.0771 97.1287 105.393 56.8776 111.263L56.8776 73.479L64.077 73.479L64.5678 101.175C64.5678 101.175 84.2025 94.9386 91.0747 73.2957L56.3867 50.7356L56.5503 7.81643C56.5503 7.81643 89.7656 7.08272 98.9285 45.4165Z" fill="#4D3100"/>
</svg>
