<svg width="29" height="29" viewBox="0 0 29 29" fill="none" xmlns="http://www.w3.org/2000/svg">
<path d="M25.2555 2.41699H3.74714C3.39462 2.41699 3.05654 2.55703 2.80727 2.8063C2.55801 3.05556 2.41797 3.39364 2.41797 3.74616V25.2545C2.41797 25.607 2.55801 25.9451 2.80727 26.1944C3.05654 26.4436 3.39462 26.5837 3.74714 26.5837H15.323V17.2191H12.1813V13.5941H15.323V10.8753C15.2579 10.237 15.3332 9.59223 15.5437 8.98614C15.7543 8.38005 16.0948 7.82736 16.5415 7.36682C16.9883 6.90629 17.5303 6.54906 18.1297 6.3202C18.7291 6.09133 19.3713 5.99638 20.0113 6.04199C20.9518 6.0362 21.8918 6.08462 22.8267 6.18699V9.44949H20.9055C19.383 9.44949 19.093 10.1745 19.093 11.2257V13.5578H22.718L22.2467 17.1828H19.093V26.5837H25.2555C25.43 26.5837 25.6029 26.5493 25.7641 26.4825C25.9254 26.4157 26.0719 26.3178 26.1953 26.1944C26.3188 26.0709 26.4167 25.9244 26.4835 25.7631C26.5503 25.6019 26.5846 25.429 26.5846 25.2545V3.74616C26.5846 3.57161 26.5503 3.39877 26.4835 3.23751C26.4167 3.07625 26.3188 2.92972 26.1953 2.8063C26.0719 2.68287 25.9254 2.58497 25.7641 2.51817C25.6029 2.45137 25.43 2.41699 25.2555 2.41699Z" fill="white"/>
</svg>
