<svg width="29" height="29" viewBox="0 0 29 29" fill="none" xmlns="http://www.w3.org/2000/svg">
<path d="M9.4263 2.41699H19.5763C23.443 2.41699 26.5846 5.55866 26.5846 9.42533V19.5753C26.5846 21.4341 25.8463 23.2167 24.5319 24.531C23.2176 25.8453 21.435 26.5837 19.5763 26.5837H9.4263C5.55964 26.5837 2.41797 23.442 2.41797 19.5753V9.42533C2.41797 7.5666 3.15634 5.784 4.47066 4.46969C5.78498 3.15537 7.56758 2.41699 9.4263 2.41699ZM9.18464 4.83366C8.03094 4.83366 6.9245 5.29196 6.10872 6.10774C5.29294 6.92353 4.83464 8.02997 4.83464 9.18366V19.817C4.83464 22.2216 6.78005 24.167 9.18464 24.167H19.818C20.9717 24.167 22.0781 23.7087 22.8939 22.8929C23.7097 22.0771 24.168 20.9707 24.168 19.817V9.18366C24.168 6.77908 22.2226 4.83366 19.818 4.83366H9.18464ZM20.8451 6.64616C21.2456 6.64616 21.6298 6.80529 21.9131 7.08855C22.1963 7.37181 22.3555 7.75599 22.3555 8.15658C22.3555 8.55716 22.1963 8.94134 21.9131 9.2246C21.6298 9.50786 21.2456 9.66699 20.8451 9.66699C20.4445 9.66699 20.0603 9.50786 19.777 9.2246C19.4938 8.94134 19.3346 8.55716 19.3346 8.15658C19.3346 7.75599 19.4938 7.37181 19.777 7.08855C20.0603 6.80529 20.4445 6.64616 20.8451 6.64616ZM14.5013 8.45866C16.1037 8.45866 17.6404 9.09519 18.7734 10.2282C19.9064 11.3613 20.543 12.898 20.543 14.5003C20.543 16.1027 19.9064 17.6394 18.7734 18.7724C17.6404 19.9055 16.1037 20.542 14.5013 20.542C12.899 20.542 11.3622 19.9055 10.2292 18.7724C9.09617 17.6394 8.45964 16.1027 8.45964 14.5003C8.45964 12.898 9.09617 11.3613 10.2292 10.2282C11.3622 9.09519 12.899 8.45866 14.5013 8.45866ZM14.5013 10.8753C13.5399 10.8753 12.6179 11.2572 11.938 11.9371C11.2582 12.6169 10.8763 13.5389 10.8763 14.5003C10.8763 15.4617 11.2582 16.3838 11.938 17.0636C12.6179 17.7434 13.5399 18.1253 14.5013 18.1253C15.4627 18.1253 16.3847 17.7434 17.0646 17.0636C17.7444 16.3838 18.1263 15.4617 18.1263 14.5003C18.1263 13.5389 17.7444 12.6169 17.0646 11.9371C16.3847 11.2572 15.4627 10.8753 14.5013 10.8753Z" fill="white"/>
</svg>
