<svg width="29" height="29" viewBox="0 0 29 29" fill="none" xmlns="http://www.w3.org/2000/svg">
<g id="Snapchat">
<path id="Vector" d="M26.5502 8.07199C26.5489 7.63717 26.5093 7.20331 26.4318 6.77545C26.3448 6.25179 26.1795 5.74423 25.9412 5.26987C25.6805 4.77159 25.341 4.31868 24.9359 3.92862C24.3241 3.32982 23.5684 2.8987 22.7416 2.67678C21.9825 2.49269 21.2024 2.4094 20.4216 2.42908L20.4179 2.41699H8.57747V2.42908C8.13326 2.42588 7.68919 2.44605 7.2471 2.48949C6.76274 2.54085 6.28593 2.64789 5.8261 2.80849C5.06838 3.09407 4.38869 3.5543 3.8422 4.15181C3.2957 4.74932 2.8978 5.46729 2.6808 6.24741C2.49799 7.00058 2.41471 7.77446 2.4331 8.54928L2.42585 20.4369C2.42403 20.9757 2.46037 21.5139 2.5346 22.0476C2.61577 22.6114 2.78285 23.1595 3.03001 23.6728C3.37795 24.3585 3.87358 24.9585 4.48122 25.4297C4.91568 25.7754 5.40778 26.0417 5.93485 26.2163C6.708 26.4551 7.51335 26.5733 8.32251 26.5667C8.83001 26.5704 9.33631 26.5837 9.8426 26.5812C13.5244 26.5655 17.2062 26.6078 20.8868 26.5583C21.3735 26.5479 21.8586 26.4965 22.3368 26.4048C23.2396 26.2456 24.0797 25.8367 24.7619 25.2243C25.5655 24.5255 26.1265 23.5896 26.3641 22.5515C26.5107 21.8563 26.5808 21.1472 26.5732 20.4369V20.2955C26.5732 20.2399 26.5526 8.23149 26.5502 8.0732V8.07199ZM23.3167 19.2491C23.1621 19.6116 22.3815 19.9112 21.0596 20.1154C20.9363 20.1348 20.8831 20.3354 20.8118 20.664C20.7828 20.7994 20.7514 20.9323 20.7116 21.0712C20.6994 21.1301 20.6661 21.1824 20.6181 21.2185C20.57 21.2545 20.5104 21.2718 20.4506 21.267H20.4288C20.3027 21.2621 20.1774 21.2459 20.0542 21.2187C19.7279 21.1507 19.3955 21.1159 19.0622 21.1147C18.8225 21.1153 18.5832 21.1355 18.3468 21.1752C17.8482 21.3016 17.3844 21.5386 16.9899 21.8687C16.323 22.4377 15.4852 22.7677 14.6095 22.8064C14.5643 22.8063 14.5192 22.8051 14.4741 22.8028C14.4448 22.8053 14.4154 22.8065 14.3859 22.8064C13.5101 22.7681 12.6722 22.438 12.0055 21.8687C11.6109 21.5388 11.1471 21.3017 10.6486 21.1752C10.4122 21.1355 10.1729 21.1153 9.93322 21.1147C9.59998 21.1183 9.26797 21.156 8.94239 21.2271C8.81889 21.2556 8.69316 21.2734 8.5666 21.2803C8.50283 21.2878 8.43856 21.2712 8.38629 21.2339C8.33403 21.1966 8.29751 21.1412 8.28385 21.0785C8.24456 20.943 8.2111 20.806 8.18355 20.6677C8.11105 20.3378 8.0591 20.136 7.93585 20.1167C6.61393 19.9137 5.83335 19.6128 5.67747 19.2491C5.6615 19.2128 5.65209 19.1739 5.64968 19.1343C5.6469 19.082 5.66347 19.0306 5.69625 18.9898C5.72902 18.949 5.77568 18.9217 5.8273 18.9132C6.92051 18.7153 7.90562 18.1297 8.60164 17.2638C8.98387 16.8205 9.30157 16.3254 9.54535 15.7932L9.55018 15.7836C9.62231 15.6657 9.66779 15.5334 9.68344 15.3961C9.6991 15.2587 9.68454 15.1196 9.64081 14.9885C9.47164 14.5873 8.90735 14.4085 8.53397 14.2901C8.44968 14.2647 8.36626 14.2365 8.28385 14.2055C7.95276 14.075 7.40901 13.7983 7.48151 13.4177C7.53686 13.2742 7.6357 13.1516 7.76419 13.0671C7.89268 12.9826 8.04438 12.9404 8.19805 12.9464C8.27288 12.9447 8.34715 12.9595 8.41556 12.9899C8.69386 13.1325 8.9997 13.2133 9.31214 13.2267C9.49821 13.2401 9.68259 13.1837 9.82931 13.0684C9.81964 12.892 9.80876 12.7156 9.79668 12.5392C9.62701 11.3483 9.69975 10.1355 10.0106 8.97341C10.3759 8.13893 10.9789 7.43055 11.7443 6.93672C12.5098 6.44289 13.4038 6.18549 14.3146 6.19666L14.6711 6.19424C15.583 6.18259 16.4781 6.4397 17.2448 6.93351C18.0115 7.42731 18.6159 8.13594 18.9824 8.97099C19.2932 10.1347 19.3655 11.3492 19.1951 12.5416L19.1915 12.5984L19.1637 13.0684C19.2968 13.1739 19.4627 13.2295 19.6325 13.2255C19.9272 13.2034 20.2146 13.1233 20.4783 12.9899C20.5652 12.952 20.6591 12.9331 20.7538 12.9343C20.8619 12.934 20.969 12.9545 21.0692 12.9947L21.0741 12.9972C21.1874 13.0242 21.2901 13.0843 21.3691 13.17C21.4481 13.2556 21.4998 13.3629 21.5175 13.4781C21.5211 13.663 21.3846 13.9385 20.7091 14.2055C20.6403 14.2321 20.5521 14.2611 20.459 14.2901C20.0844 14.4085 19.5213 14.5873 19.3522 14.9885C19.3084 15.1193 19.2937 15.2582 19.3091 15.3953C19.3246 15.5324 19.3698 15.6645 19.4416 15.7824L19.4464 15.7932C19.7842 16.5649 20.2957 17.2479 20.9411 17.7892C21.5865 18.3304 22.3482 18.7151 23.1669 18.9132C23.2183 18.922 23.2647 18.9494 23.2972 18.9901C23.3297 19.0309 23.3461 19.0822 23.3433 19.1343C23.341 19.1743 23.3316 19.2136 23.3155 19.2503L23.3167 19.2491Z" fill="white"/>
</g>
</svg>
