<svg width="29" height="29" viewBox="0 0 29 29" fill="none" xmlns="http://www.w3.org/2000/svg">
<path fill-rule="evenodd" clip-rule="evenodd" d="M18.1513 4.03899C18.7663 3.93387 19.4539 3.89882 20.1015 4.00878C21.2552 4.20365 22.3241 4.73938 23.1707 5.54699C23.7217 5.55907 24.2642 5.45032 24.7439 5.29566C25.2076 5.14446 25.6526 4.94138 26.0707 4.69028L26.0816 4.68303C26.2556 4.5671 26.4643 4.5149 26.6724 4.53528C26.8805 4.55566 27.0751 4.64737 27.2233 4.79486C27.3715 4.94235 27.4642 5.13655 27.4856 5.34454C27.5069 5.55253 27.4557 5.76152 27.3407 5.93607C27.0905 6.3167 26.7413 6.99578 26.351 7.75703L26.1637 8.12074C25.9402 8.55574 25.7106 8.99557 25.4967 9.37257C25.3626 9.60941 25.2188 9.84987 25.0738 10.0577V10.3888C25.0887 12.3688 24.709 14.332 23.957 16.1637C23.205 17.9954 22.0957 19.659 20.6938 21.0574C19.292 22.4557 17.6256 23.5609 15.792 24.3084C13.9584 25.0558 11.9943 25.4306 10.0144 25.4108C7.1451 25.4134 4.33623 24.5868 1.92578 23.0304C1.75349 22.9189 1.62411 22.7523 1.55882 22.5578C1.49353 22.3633 1.49619 22.1523 1.56635 21.9595C1.63652 21.7667 1.77005 21.6034 1.94509 21.4963C2.12013 21.3893 2.32633 21.3448 2.52994 21.3701C4.19487 21.5691 5.88232 21.3005 7.40315 20.5944C6.66115 20.257 5.99753 19.7689 5.45456 19.161C4.91158 18.5531 4.50115 17.8388 4.2494 17.0636C4.20143 16.9152 4.19258 16.7569 4.2237 16.6041C4.25481 16.4513 4.32485 16.309 4.42703 16.1912L4.43911 16.1791C3.82574 15.6327 3.33417 14.9633 2.9963 14.2145C2.65844 13.4657 2.48185 12.6542 2.47799 11.8327V11.7699C2.4779 11.571 2.54328 11.3775 2.66404 11.2194C2.7848 11.0613 2.95423 10.9473 3.14619 10.8951C2.73702 10.0787 2.52473 9.17775 2.52632 8.26453C2.52563 7.2292 2.79644 6.21178 3.31174 5.31378C3.38494 5.18631 3.48807 5.07855 3.6122 4.99982C3.73634 4.92108 3.87777 4.87372 4.02429 4.86183C4.17081 4.84994 4.31802 4.87387 4.45323 4.93155C4.58844 4.98924 4.70759 5.07895 4.8004 5.19295C6.91401 7.79683 9.94208 9.49542 13.266 9.9417C13.2371 8.85442 13.5114 7.78057 14.0582 6.84031C14.6049 5.90006 15.4025 5.13051 16.3617 4.61778C16.8475 4.3592 17.4903 4.15257 18.1525 4.03899H18.1513ZM4.52369 13.1595C4.75834 13.8199 5.16041 14.408 5.69057 14.8664C6.22072 15.3247 6.8608 15.6376 7.54815 15.7743C7.74618 15.8138 7.92537 15.9182 8.05727 16.0711C8.18917 16.224 8.26623 16.4166 8.27623 16.6183C8.28622 16.8199 8.22857 17.0192 8.11243 17.1844C7.99629 17.3495 7.82831 17.4712 7.63515 17.53C7.30649 17.6303 6.96936 17.6992 6.6274 17.7391C6.99866 18.218 7.47246 18.6076 8.01402 18.8795C8.55558 19.1513 9.15114 19.2984 9.75699 19.3099C9.94386 19.3134 10.1251 19.3746 10.2758 19.4852C10.4265 19.5957 10.5394 19.7501 10.5989 19.9273C10.6585 20.1045 10.6618 20.2957 10.6084 20.4748C10.555 20.654 10.4476 20.8122 10.3007 20.9279C9.04075 21.9192 7.57651 22.6188 6.01357 22.976C7.30753 23.3902 8.65815 23.6001 10.0168 23.5983H10.0277C11.7677 23.6166 13.4939 23.288 15.1055 22.6317C16.7171 21.9753 18.1817 21.0044 19.4137 19.7756C20.6458 18.5468 21.6206 17.0847 22.2813 15.4749C22.9419 13.8651 23.2751 12.1397 23.2613 10.3997V9.7532C23.2611 9.53315 23.341 9.32055 23.4861 9.15507C23.5707 9.05962 23.7157 8.8397 23.9211 8.47841C24.1144 8.13766 24.3295 7.72682 24.553 7.29303L24.5929 7.21328C23.9617 7.35533 23.3118 7.3949 22.668 7.33049C22.4503 7.30678 22.2486 7.20505 22.1001 7.04412C21.4924 6.38519 20.6832 5.94659 19.7994 5.79712C19.3537 5.73406 18.9006 5.74427 18.4582 5.82732C18.0269 5.89446 17.6082 6.02602 17.216 6.21762C16.4254 6.64005 15.7973 7.31299 15.4303 8.13088C15.0634 8.94877 14.9783 9.86533 15.1884 10.7368C15.2215 10.8738 15.2222 11.0167 15.1903 11.154C15.1585 11.2913 15.0951 11.4193 15.0051 11.5279C14.9151 11.6364 14.8011 11.7224 14.672 11.7791C14.543 11.8358 14.4024 11.8616 14.2617 11.8545C10.5492 11.6667 7.03927 10.1045 4.41494 7.47187C4.36396 7.73341 4.33846 7.99928 4.33882 8.26574V8.26816C4.33746 8.93364 4.50069 9.58914 4.81397 10.1763C5.12725 10.7634 5.58086 11.264 6.1344 11.6334C6.29696 11.7428 6.41967 11.9019 6.48415 12.0869C6.54864 12.272 6.55142 12.4729 6.49207 12.6597C6.43273 12.8464 6.31446 13.0089 6.155 13.1227C5.99553 13.2366 5.80346 13.2957 5.60757 13.2912C5.2429 13.2811 4.88 13.2378 4.52369 13.1595Z" fill="white"/>
</svg>
