<svg width="29" height="29" viewBox="0 0 29 29" fill="none" xmlns="http://www.w3.org/2000/svg">
<rect width="29" height="29" fill="#615E5E"/>
<g id="1 - Acceuil" clip-path="url(#clip0_0_1)">
<rect width="1440" height="4229" transform="translate(-147 -143)" fill="white"/>
<g id="Header" filter="url(#filter0_d_0_1)">
<rect id="Header_2" x="-147" y="-143" width="1440" height="185" fill="#533708"/>
<g id="resaux sociaux">
<g id="Youtube" clip-path="url(#clip1_0_1)">
<path id="Vector" d="M14.5 3.33496C0.2494 3.33496 0 4.60226 0 14.5C0 24.3977 0.2494 25.665 14.5 25.665C28.7506 25.665 29 24.3977 29 14.5C29 4.60226 28.7506 3.33496 14.5 3.33496ZM19.1473 14.9843L12.6368 18.0235C12.0669 18.2874 11.6 17.9916 11.6 17.3623V11.6377C11.6 11.0098 12.0669 10.7126 12.6368 10.9765L19.1473 14.0157C19.7171 14.2825 19.7171 14.7175 19.1473 14.9843Z" fill="white"/>
</g>
</g>
</g>
</g>
<defs>
<filter id="filter0_d_0_1" x="-151" y="-143" width="1448" height="193.146" filterUnits="userSpaceOnUse" color-interpolation-filters="sRGB">
<feFlood flood-opacity="0" result="BackgroundImageFix"/>
<feColorMatrix in="SourceAlpha" type="matrix" values="0 0 0 0 0 0 0 0 0 0 0 0 0 0 0 0 0 0 127 0" result="hardAlpha"/>
<feOffset dy="4"/>
<feGaussianBlur stdDeviation="2"/>
<feComposite in2="hardAlpha" operator="out"/>
<feColorMatrix type="matrix" values="0 0 0 0 0 0 0 0 0 0 0 0 0 0 0 0 0 0 0.25 0"/>
<feBlend mode="normal" in2="BackgroundImageFix" result="effect1_dropShadow_0_1"/>
<feBlend mode="normal" in="SourceGraphic" in2="effect1_dropShadow_0_1" result="shape"/>
</filter>
<clipPath id="clip0_0_1">
<rect width="1440" height="4229" fill="white" transform="translate(-147 -143)"/>
</clipPath>
<clipPath id="clip1_0_1">
<rect width="29" height="29" fill="white"/>
</clipPath>
</defs>
</svg>
