<svg width="102" height="86" viewBox="0 0 102 86" fill="none" xmlns="http://www.w3.org/2000/svg">
<path d="M51 8.0625C49.7438 8.06285 48.5 8.27181 47.3396 8.67745C46.1792 9.08309 45.1249 9.67747 44.237 10.4266C43.349 11.1758 42.6448 12.0651 42.1644 13.0438C41.6841 14.0224 41.4371 15.0712 41.4375 16.1304C41.4379 17.1895 41.6858 18.2382 42.1669 19.2166C42.648 20.195 43.3529 21.0839 44.2415 21.8325C45.13 22.5812 46.1848 23.175 47.3455 23.58C48.5062 23.985 49.7502 24.1932 51.0064 24.1929C53.5434 24.1922 55.9761 23.3418 57.7694 21.8287C59.5627 20.3157 60.5697 18.264 60.5689 16.125C60.568 13.986 59.5594 11.9349 57.7649 10.4228C55.9704 8.91083 53.537 8.06179 51 8.0625ZM28.4867 17.3021C26.3738 17.3035 24.3479 18.0119 22.8538 19.2716C21.3597 20.5313 20.5196 22.2394 20.5179 24.0209C20.5179 27.7242 24.0943 30.7396 28.4867 30.7396C30.6001 30.7396 32.627 30.0318 34.1214 28.7717C35.6159 27.5117 36.4554 25.8028 36.4554 24.0209C36.4554 22.239 35.6159 20.53 34.1214 19.27C32.627 18.01 30.6001 17.3021 28.4867 17.3021ZM73.5133 21.3334C71.757 21.3334 70.3258 22.5401 70.3258 24.0209C70.3258 25.499 71.757 26.7084 73.5133 26.7084C75.2664 26.7084 76.7008 25.499 76.7008 24.0209C76.7008 22.5401 75.2664 21.3334 73.5133 21.3334ZM19.125 36.9531C18.183 36.9533 17.2502 37.1099 16.38 37.414C15.5097 37.7181 14.719 38.1638 14.0531 38.7256C13.3871 39.2873 12.8589 39.9542 12.4986 40.688C12.1383 41.4219 11.9529 42.2084 11.9531 43.0027C11.9533 43.797 12.1391 44.5834 12.4998 45.3171C12.8605 46.0509 13.389 46.7175 14.0553 47.279C14.7216 47.8405 15.5125 48.2859 16.3829 48.5897C17.2533 48.8935 18.1862 49.0497 19.1282 49.0496C21.0307 49.0492 22.8551 48.4116 24.2001 47.2771C25.5451 46.1426 26.3005 44.6041 26.3001 43C26.2996 41.3959 25.5435 39.8577 24.1979 38.7237C22.8523 37.5896 21.0275 36.9528 19.125 36.9531ZM82.875 39.6406C82.3388 39.6222 81.8037 39.6952 81.3018 39.8554C80.7999 40.0156 80.3416 40.2597 79.9543 40.5729C79.567 40.8861 79.2588 41.2621 79.0481 41.6782C78.8374 42.0943 78.7286 42.542 78.7281 42.9945C78.7277 43.447 78.8357 43.8949 79.0456 44.3113C79.2555 44.7277 79.563 45.1041 79.9497 45.4178C80.3364 45.7315 80.7943 45.9762 81.2959 46.1371C81.7974 46.2979 82.3324 46.3717 82.8686 46.354C83.897 46.32 84.8698 45.9518 85.5834 45.3266C86.2971 44.7014 86.6961 43.8676 86.6969 42.9999C86.6977 42.1322 86.3003 41.2979 85.5879 40.6717C84.8754 40.0455 83.9033 39.676 82.875 39.6406ZM28.4867 56.6068C24.9645 56.6068 22.1117 59.0094 22.1117 61.9818C22.1117 63.4073 22.7833 64.7745 23.9789 65.7825C25.1744 66.7905 26.7959 67.3568 28.4867 67.3568C30.1774 67.3568 31.7989 66.7905 32.9945 65.7825C34.19 64.7745 34.8617 63.4073 34.8617 61.9818C34.8617 59.0094 32.0121 56.6068 28.4867 56.6068ZM73.5133 57.9506C72.8854 57.9506 72.2637 58.0548 71.6836 58.2574C71.1035 58.46 70.5764 58.757 70.1325 59.1313C69.6885 59.5056 69.3363 59.95 69.096 60.4391C68.8557 60.9282 68.7321 61.4524 68.7321 61.9818C68.7321 62.5112 68.8557 63.0354 69.096 63.5245C69.3363 64.0136 69.6885 64.458 70.1325 64.8323C70.5764 65.2067 71.1035 65.5036 71.6836 65.7062C72.2637 65.9088 72.8854 66.0131 73.5133 66.0131C74.7814 66.0131 75.9975 65.5883 76.8942 64.8323C77.7908 64.0763 78.2946 63.051 78.2946 61.9818C78.2946 60.9127 77.7908 59.8873 76.8942 59.1313C75.9975 58.3753 74.7814 57.9506 73.5133 57.9506ZM51 65.1719C47.9241 65.1719 45.4219 67.2816 45.4219 69.875C45.4219 72.4684 47.9241 74.5781 51 74.5781C54.0759 74.5781 56.5781 72.4684 56.5781 69.875C56.5781 67.2816 54.0759 65.1719 51 65.1719Z" fill="#F8F8F8"/>
</svg>
