<svg width="1440" height="39" viewBox="0 0 1440 39" fill="none" xmlns="http://www.w3.org/2000/svg">
<path d="M1781.99 39H-145V21.3902H-144.949C-125.844 21.5388 -106.75 20.4228 -87.7941 18.0496C-72.7405 16.0463 -60.4972 13.3293 -48.657 10.7063H-48.6492C-36.8103 8.07942 -24.5696 5.36239 -9.5108 3.36294C9.46269 0.985256 28.5745 -0.13375 47.6977 0.0133501C66.8198 -0.136726 85.9307 0.979268 104.904 3.35392C119.962 5.35852 132.204 8.07427 144.045 10.6973C155.885 13.3202 168.123 16.0411 183.192 18.0406C202.166 20.4151 221.278 21.5311 240.401 21.3812C259.52 21.5338 278.628 20.4209 297.599 18.0496C312.65 16.0463 324.892 13.3305 336.729 10.7063H336.74H336.747C348.581 8.07942 360.818 5.36368 375.879 3.36294C394.85 0.985462 413.959 -0.133544 433.08 0.0133501C452.202 -0.136764 471.313 0.97923 490.286 3.35392C505.323 5.35466 517.54 8.06525 529.358 10.6857L529.428 10.7011C541.263 13.328 553.5 16.0437 568.576 18.0445C587.549 20.4191 606.661 21.5351 625.784 21.385C644.906 21.5367 664.016 20.4224 682.989 18.0496C698.043 16.0463 710.284 13.3293 722.125 10.7063L722.164 10.6973C733.996 8.07169 746.23 5.35852 761.272 3.35392C799.279 -1.10003 837.68 -1.10003 875.687 3.35392C890.73 5.35595 902.968 8.07169 914.803 10.6973H914.828H914.84H914.849C926.686 13.3228 938.927 16.0373 953.971 18.0406C972.945 20.4152 992.057 21.5312 1011.18 21.3812C1030.3 21.534 1049.41 20.421 1068.38 18.0496C1083.44 16.0463 1095.68 13.3305 1107.52 10.7063C1119.36 8.082 1131.6 5.36239 1146.67 3.3565C1184.67 -1.09747 1223.08 -1.09747 1261.08 3.3565C1276.14 5.35981 1288.38 8.07684 1300.22 10.6998C1312.06 13.3228 1324.31 16.045 1339.37 18.0432C1358.34 20.4177 1377.46 21.5337 1396.58 21.3837C1415.7 21.5359 1434.81 20.422 1453.79 18.0496C1468.85 16.045 1481.09 13.3293 1492.94 10.7063L1492.98 10.696C1504.81 8.07169 1517.04 5.35852 1532.08 3.35263C1570.09 -1.10127 1608.49 -1.10127 1646.5 3.35263C1661.56 5.35595 1673.8 8.07298 1685.64 10.696C1697.48 13.319 1709.73 16.0411 1724.79 18.0393C1743.76 20.4138 1762.88 21.5298 1782 21.3799V38.9974L1781.99 39Z" fill="#533708"/>
</svg>
